#!OML:ASF H:\Terrain\Patient Classification 1\Takeo\Monday\TakeoMonday.ASF
:FULLY-SPECIFIED
:DEGREES
1
root 9.62745 17.7973 -1.03923 -6.37909 -22.4014 3.49382
lowerback 5.60025 1.12798 -0.0431347
upperback 2.77139 1.49305 0.791281
thorax -0.311801 0.736113 0.749946
lowerneck -8.90502 6.57112 0.322245
upperneck 1.33699 8.87524 -3.9415
head 2.15388 4.30658 -0.892614
rclavicle -5.42682e-014 8.74653e-015
rhumerus -26.2308 10.8446 -85.4595
rradius 32.4455
rwrist -15.5297
rhand -23.7652 16.4224
rfingers 7.12502
rthumb 2.70415 -13.5402
lclavicle -5.42682e-014 8.74653e-015
lhumerus -31.3304 15.8471 84.3404
lradius 34.38
lwrist 26.2658
lhand -24.6861 18.635
lfingers 7.12502
lthumb 1.81469 48.607
rfemur 5.94355 -4.3449 19.6053
rtibia 16.8854
rfoot -16.8444 -20.544
rtoes 1.44864
lfemur -6.98547 0.557427 -21.3734
ltibia 17.0463
lfoot -2.75734 18.7084
ltoes -9.6083
2
root 9.62656 17.8064 -1.04088 -6.77019 -22.4714 4.31411
lowerback 5.63075 1.18462 -0.822496
upperback 2.76579 1.52792 0.503344
thorax -0.347203 0.748779 0.888507
lowerneck -9.10577 6.53782 0.41069
upperneck 1.57659 8.82346 -3.76365
head 2.26379 4.28043 -0.842888
rclavicle -2.28602e-014 -9.54166e-015
rhumerus -25.9117 11.0482 -85.427
rradius 33.1533
rwrist -15.4785
rhand -23.7137 16.9463
rfingers 7.12502
rthumb 2.7539 -13.0157
lclavicle -2.28602e-014 -9.54166e-015
lhumerus -31.1048 15.6299 84.152
lradius 34.9938
lwrist 26.0345
lhand -24.8257 17.3458
lfingers 7.12502
lthumb 1.67989 47.3189
rfemur 5.58529 -4.31944 18.7449
rtibia 17.7
rfoot -17.3768 -20.3152
rtoes 0.812677
lfemur -6.3733 0.67115 -22.1846
ltibia 16.0051
lfoot -2.47638 18.8758
ltoes -7.21126
3
root 9.62998 17.8057 -1.04808 -6.8824 -22.6067 4.30261
lowerback 5.72483 1.2218 -0.836751
upperback 2.81898 1.57562 0.520058
thorax -0.346666 0.771967 0.909465
lowerneck -9.41001 6.48127 0.702006
upperneck 1.80976 8.74026 -4.06291
head 2.42834 4.22418 -0.976456
rclavicle 1.77167e-014 -1.59028e-015
rhumerus -25.4393 11.3746 -85.1344
rradius 33.8551
rwrist -15.5995
rhand -23.7824 17.461
rfingers 7.12502
rthumb 2.68753 -12.5018
lclavicle 1.77167e-014 -1.59028e-015
lhumerus -30.6576 15.0319 84.362
lradius 35.5831
lwrist 26.3099
lhand -24.8272 16.9875
lfingers 7.12502
lthumb 1.67843 46.9607
rfemur 5.76242 -4.10528 18.7989
rtibia 17.5068
rfoot -17.373 -20.3375
rtoes 0.735612
lfemur -6.3188 0.727808 -22.146
ltibia 16.1323
lfoot -2.89253 19.0341
ltoes -5.55284
4
root 9.63367 17.8102 -1.05884 -6.72283 -23.0092 3.64943
lowerback 5.86327 1.28916 -0.188989
upperback 2.82847 1.69858 0.676404
thorax -0.402741 0.837978 0.696457
lowerneck -9.53851 6.48866 0.895745
upperneck 1.95085 8.74287 -4.23599
head 2.51999 4.21749 -1.05749
rclavicle -5.88403e-014 -7.95139e-016
rhumerus -25.0654 11.8104 -84.8778
rradius 34.7792
rwrist -15.9597
rhand -23.7699 17.4346
rfingers 7.12502
rthumb 2.69962 -12.5281
lclavicle -5.88403e-014 -7.95139e-016
lhumerus -30.181 14.1762 84.5703
lradius 36.1581
lwrist 26.7356
lhand -24.6149 18.372
lfingers 7.12502
lthumb 1.88346 48.3434
rfemur 5.64617 -3.79222 19.5374
rtibia 17.6972
rfoot -17.3558 -20.3981
rtoes 0.807379
lfemur -6.09445 0.848581 -21.4069
ltibia 15.8309
lfoot -3.26214 19.3391
ltoes -3.11475
5
root 9.63956 17.8111 -1.06613 -6.66175 -23.4227 3.56625
lowerback 5.8153 1.37684 -0.0297873
upperback 2.8143 1.8231 0.634957
thorax -0.386109 0.901835 0.558177
lowerneck -9.64451 6.44374 1.37457
upperneck 2.14246 8.66189 -4.72438
head 2.65672 4.16083 -1.29382
rclavicle 1.23246e-014 2.38542e-015
rhumerus -24.6866 12.3655 -84.8057
rradius 35.7718
rwrist -16.2721
rhand -24.0701 17.0497
rfingers 7.12502
rthumb 2.40965 -12.9165
lclavicle 1.23246e-014 2.38542e-015
lhumerus -29.7196 13.3704 84.6017
lradius 37.0015
lwrist 27.049
lhand -23.8983 19.9463
lfingers 7.12502
lthumb 2.57557 49.9105
rfemur 5.52531 -3.72096 19.6036
rtibia 17.6224
rfoot -16.8526 -20.2514
rtoes -0.0257765
lfemur -6.16147 0.93457 -21.2462
ltibia 15.9054
lfoot -3.96193 19.6153
ltoes -0.544775
6
root 9.6496 17.8031 -1.06865 -6.85155 -23.5696 3.87705
lowerback 5.75252 1.37674 -0.23095
upperback 2.87363 1.8113 0.532722
thorax -0.293051 0.89447 0.569239
lowerneck -9.66483 6.37764 1.73166
upperneck 2.1679 8.56441 -5.29031
head 2.71895 4.09582 -1.54344
rclavicle 2.38542e-015 1.59028e-015
rhumerus -24.1714 13.026 -84.6813
rradius 36.6705
rwrist -16.4237
rhand -24.6147 16.8107
rfingers 7.12502
rthumb 1.88368 -13.1608
lclavicle 2.38542e-015 1.59028e-015
lhumerus -29.2787 12.7954 84.6714
lradius 38.1689
lwrist 27.45
lhand -22.9189 21.031
lfingers 7.12502
lthumb 3.5214 50.9817
rfemur 5.58474 -3.77476 19.2083
rtibia 17.6097
rfoot -16.5408 -20.0241
rtoes -0.149734
lfemur -6.07973 0.915271 -21.5608
ltibia 15.9255
lfoot -4.43832 19.7679
ltoes 0.272922
